<mxfile host="app.diagrams.net" agent="Mozilla/5.0 (Windows NT 10.0; Win64; x64) AppleWebKit/537.36 (KHTML, like Gecko) Chrome/137.0.0.0 Safari/537.36" version="27.1.6">
  <diagram name="Page-1" id="c4acf3e9-155e-7222-9cf6-157b1a14988f">
    <mxGraphModel dx="2339" dy="1910" grid="1" gridSize="10" guides="1" tooltips="1" connect="1" arrows="1" fold="1" page="1" pageScale="1" pageWidth="850" pageHeight="1100" background="none" math="0" shadow="0">
      <root>
        <mxCell id="0" />
        <mxCell id="1" parent="0" />
        <mxCell id="UcH5Wo7i8Ctd8OzwUcl7-14" value="&lt;font style=&quot;font-size: 12px;&quot;&gt;setzt Algorithmus&lt;/font&gt;" style="edgeStyle=none;rounded=0;orthogonalLoop=1;jettySize=auto;html=1;exitX=0;exitY=0.5;exitDx=0;exitDy=0;endArrow=classic;endFill=1;dashed=1;strokeWidth=1;" edge="1" parent="1" source="5d2195bd80daf111-15">
          <mxGeometry x="-0.3651" relative="1" as="geometry">
            <mxPoint x="-130" y="100" as="targetPoint" />
            <Array as="points">
              <mxPoint x="-130" y="-15" />
            </Array>
            <mxPoint as="offset" />
          </mxGeometry>
        </mxCell>
        <mxCell id="5d2195bd80daf111-15" value="&lt;p style=&quot;margin:0px;margin-top:4px;text-align:center;&quot;&gt;&lt;i&gt;&lt;b&gt;GlobalConfig&lt;/b&gt;&lt;/i&gt;&lt;/p&gt;&lt;hr size=&quot;1&quot;&gt;&lt;p style=&quot;margin:0px;margin-left:4px;&quot;&gt;&lt;br&gt;&lt;/p&gt;&lt;hr size=&quot;1&quot;&gt;&lt;p style=&quot;margin:0px;margin-left:4px;&quot;&gt;&lt;br&gt;&lt;/p&gt;" style="verticalAlign=top;align=left;overflow=fill;fontSize=12;fontFamily=Helvetica;html=1;rounded=0;shadow=0;comic=0;labelBackgroundColor=none;strokeWidth=1" parent="1" vertex="1">
          <mxGeometry x="25" y="-60" width="230" height="90" as="geometry" />
        </mxCell>
        <mxCell id="UcH5Wo7i8Ctd8OzwUcl7-28" value="" style="edgeStyle=none;rounded=0;orthogonalLoop=1;jettySize=auto;html=1;endArrow=none;startFill=0;" edge="1" parent="1" source="5d2195bd80daf111-18" target="UcH5Wo7i8Ctd8OzwUcl7-27">
          <mxGeometry relative="1" as="geometry" />
        </mxCell>
        <mxCell id="5d2195bd80daf111-18" value="&lt;p style=&quot;margin:0px;margin-top:4px;text-align:center;&quot;&gt;&lt;i&gt;&amp;lt;&amp;lt;Interface&amp;gt;&amp;gt;&lt;/i&gt;&lt;br&gt;&lt;b&gt;Algorithm&lt;/b&gt;&lt;/p&gt;&lt;hr size=&quot;1&quot;&gt;&lt;p style=&quot;margin:0px;margin-left:4px;&quot;&gt;&lt;br&gt;&lt;/p&gt;&lt;hr size=&quot;1&quot;&gt;&lt;p style=&quot;margin:0px;margin-left:4px;&quot;&gt;+ verifyBooking (b: Buchung) : Status&lt;br&gt;&lt;/p&gt;" style="verticalAlign=top;align=left;overflow=fill;fontSize=12;fontFamily=Helvetica;html=1;rounded=0;shadow=0;comic=0;labelBackgroundColor=none;strokeWidth=1" parent="1" vertex="1">
          <mxGeometry x="120" y="100" width="230" height="103" as="geometry" />
        </mxCell>
        <mxCell id="UcH5Wo7i8Ctd8OzwUcl7-4" style="edgeStyle=none;rounded=0;orthogonalLoop=1;jettySize=auto;html=1;entryX=0.551;entryY=0.987;entryDx=0;entryDy=0;entryPerimeter=0;dashed=1;endArrow=block;endFill=0;startSize=8;endSize=14;" edge="1" parent="1" target="5d2195bd80daf111-18">
          <mxGeometry relative="1" as="geometry">
            <mxPoint x="290" y="310" as="sourcePoint" />
            <Array as="points">
              <mxPoint x="30" y="310" />
              <mxPoint x="30" y="290" />
              <mxPoint x="30" y="260" />
              <mxPoint x="247" y="260" />
            </Array>
          </mxGeometry>
        </mxCell>
        <mxCell id="UcH5Wo7i8Ctd8OzwUcl7-11" style="edgeStyle=none;rounded=0;orthogonalLoop=1;jettySize=auto;html=1;exitX=0.5;exitY=0;exitDx=0;exitDy=0;endArrow=none;startFill=0;dashed=1;" edge="1" parent="1" source="UcH5Wo7i8Ctd8OzwUcl7-5">
          <mxGeometry relative="1" as="geometry">
            <mxPoint x="295.2857142857147" y="310" as="targetPoint" />
          </mxGeometry>
        </mxCell>
        <mxCell id="UcH5Wo7i8Ctd8OzwUcl7-5" value="&lt;p style=&quot;margin:0px;margin-top:4px;text-align:center;&quot;&gt;&lt;b&gt;Swiss GAAP FER&lt;/b&gt;&lt;/p&gt;&lt;hr size=&quot;1&quot;&gt;&lt;p style=&quot;margin:0px;margin-left:4px;&quot;&gt;&lt;br&gt;&lt;/p&gt;&lt;hr size=&quot;1&quot;&gt;&lt;p style=&quot;margin:0px;margin-left:4px;&quot;&gt;+ verifyBooking (b: Buchung) : Status&lt;br&gt;&lt;/p&gt;" style="verticalAlign=top;align=left;overflow=fill;fontSize=12;fontFamily=Helvetica;html=1;rounded=0;shadow=0;comic=0;labelBackgroundColor=none;strokeWidth=1" vertex="1" parent="1">
          <mxGeometry x="180" y="360" width="230" height="80" as="geometry" />
        </mxCell>
        <mxCell id="UcH5Wo7i8Ctd8OzwUcl7-6" value="&lt;p style=&quot;margin:0px;margin-top:4px;text-align:center;&quot;&gt;&lt;b&gt;Dutch GAAP&lt;/b&gt;&lt;/p&gt;&lt;hr size=&quot;1&quot;&gt;&lt;p style=&quot;margin:0px;margin-left:4px;&quot;&gt;&lt;br&gt;&lt;/p&gt;&lt;hr size=&quot;1&quot;&gt;&lt;p style=&quot;margin:0px;margin-left:4px;&quot;&gt;+ verifyBooking (b: Buchung) : Status&lt;br&gt;&lt;/p&gt;" style="verticalAlign=top;align=left;overflow=fill;fontSize=12;fontFamily=Helvetica;html=1;rounded=0;shadow=0;comic=0;labelBackgroundColor=none;strokeWidth=1" vertex="1" parent="1">
          <mxGeometry x="-360" y="360" width="230" height="80" as="geometry" />
        </mxCell>
        <mxCell id="UcH5Wo7i8Ctd8OzwUcl7-10" style="edgeStyle=none;rounded=0;orthogonalLoop=1;jettySize=auto;html=1;exitX=0.5;exitY=0;exitDx=0;exitDy=0;endArrow=none;startFill=0;dashed=1;" edge="1" parent="1" source="UcH5Wo7i8Ctd8OzwUcl7-7">
          <mxGeometry relative="1" as="geometry">
            <mxPoint x="25.28571428571422" y="310" as="targetPoint" />
          </mxGeometry>
        </mxCell>
        <mxCell id="UcH5Wo7i8Ctd8OzwUcl7-7" value="&lt;p style=&quot;margin:0px;margin-top:4px;text-align:center;&quot;&gt;&lt;b&gt;IFRS&lt;/b&gt;&lt;/p&gt;&lt;hr size=&quot;1&quot;&gt;&lt;p style=&quot;margin:0px;margin-left:4px;&quot;&gt;&lt;br&gt;&lt;/p&gt;&lt;hr size=&quot;1&quot;&gt;&lt;p style=&quot;margin:0px;margin-left:4px;&quot;&gt;+ verifyBooking (b: Buchung) : Status&lt;br&gt;&lt;/p&gt;" style="verticalAlign=top;align=left;overflow=fill;fontSize=12;fontFamily=Helvetica;html=1;rounded=0;shadow=0;comic=0;labelBackgroundColor=none;strokeWidth=1" vertex="1" parent="1">
          <mxGeometry x="-90" y="360" width="230" height="80" as="geometry" />
        </mxCell>
        <mxCell id="UcH5Wo7i8Ctd8OzwUcl7-8" style="edgeStyle=none;rounded=0;orthogonalLoop=1;jettySize=auto;html=1;entryX=0.5;entryY=0;entryDx=0;entryDy=0;dashed=1;endArrow=none;endFill=0;startSize=8;endSize=14;startFill=0;" edge="1" parent="1" target="UcH5Wo7i8Ctd8OzwUcl7-6">
          <mxGeometry relative="1" as="geometry">
            <mxPoint x="200" y="310" as="sourcePoint" />
            <mxPoint x="330" y="310" as="targetPoint" />
            <Array as="points">
              <mxPoint y="310" />
              <mxPoint x="-245" y="310" />
            </Array>
          </mxGeometry>
        </mxCell>
        <mxCell id="UcH5Wo7i8Ctd8OzwUcl7-19" value="&lt;p style=&quot;margin:0px;margin-top:4px;text-align:center;&quot;&gt;&lt;b style=&quot;text-wrap-mode: wrap;&quot;&gt;&amp;lt;&amp;lt;interface&amp;gt;&amp;gt;&lt;br&gt;ReiseAnbieter&lt;/b&gt;&lt;/p&gt;&lt;hr size=&quot;1&quot;&gt;&lt;p style=&quot;margin:0px;margin-left:4px;&quot;&gt;&lt;br&gt;&lt;/p&gt;&lt;hr size=&quot;1&quot;&gt;&lt;p style=&quot;margin:0px;margin-left:4px;&quot;&gt;&lt;span style=&quot;text-wrap-mode: wrap;&quot;&gt;+ runQuery(d: Queryobject): Queryresult&lt;/span&gt;&lt;/p&gt;" style="verticalAlign=top;align=left;overflow=fill;fontSize=12;fontFamily=Helvetica;html=1;rounded=0;shadow=0;comic=0;labelBackgroundColor=none;strokeWidth=1" vertex="1" parent="1">
          <mxGeometry x="-620" y="-120" width="230" height="103" as="geometry" />
        </mxCell>
        <mxCell id="UcH5Wo7i8Ctd8OzwUcl7-20" style="edgeStyle=none;rounded=0;orthogonalLoop=1;jettySize=auto;html=1;entryX=0.551;entryY=0.987;entryDx=0;entryDy=0;entryPerimeter=0;dashed=1;endArrow=block;endFill=0;startSize=8;endSize=14;" edge="1" parent="1">
          <mxGeometry relative="1" as="geometry">
            <mxPoint x="-503" y="71" as="sourcePoint" />
            <mxPoint x="-503" y="-17" as="targetPoint" />
            <Array as="points">
              <mxPoint x="-503" y="100" />
              <mxPoint x="-503" y="71" />
            </Array>
          </mxGeometry>
        </mxCell>
        <mxCell id="UcH5Wo7i8Ctd8OzwUcl7-29" value="&lt;font style=&quot;font-size: 14px;&quot;&gt;fÃ¼hrt aus&lt;/font&gt;" style="edgeStyle=none;rounded=0;orthogonalLoop=1;jettySize=auto;html=1;exitX=1;exitY=0.5;exitDx=0;exitDy=0;entryX=0;entryY=0.5;entryDx=0;entryDy=0;dashed=1;" edge="1" parent="1" source="UcH5Wo7i8Ctd8OzwUcl7-21" target="UcH5Wo7i8Ctd8OzwUcl7-22">
          <mxGeometry relative="1" as="geometry" />
        </mxCell>
        <mxCell id="UcH5Wo7i8Ctd8OzwUcl7-21" value="&lt;p style=&quot;margin:0px;margin-top:4px;text-align:center;&quot;&gt;&lt;b&gt;ReiseAnbieterController&lt;/b&gt;&lt;/p&gt;&lt;hr size=&quot;1&quot;&gt;&lt;p style=&quot;margin:0px;margin-left:4px;&quot;&gt;&lt;br&gt;&lt;/p&gt;&lt;hr size=&quot;1&quot;&gt;&lt;p style=&quot;margin:0px;margin-left:4px;&quot;&gt;&lt;span style=&quot;text-wrap-mode: wrap;&quot;&gt;+ runQuery(d: Queryobject): Queryresult&lt;/span&gt;&lt;/p&gt;" style="verticalAlign=top;align=left;overflow=fill;fontSize=12;fontFamily=Helvetica;html=1;rounded=0;shadow=0;comic=0;labelBackgroundColor=none;strokeWidth=1" vertex="1" parent="1">
          <mxGeometry x="-620" y="100" width="230" height="103" as="geometry" />
        </mxCell>
        <mxCell id="UcH5Wo7i8Ctd8OzwUcl7-22" value="&lt;p style=&quot;margin:0px;margin-top:4px;text-align:center;&quot;&gt;&lt;b&gt;Buchung&lt;/b&gt;&lt;/p&gt;&lt;hr size=&quot;1&quot;&gt;&lt;p style=&quot;margin:0px;margin-left:4px;&quot;&gt;- s : Algorithm&lt;/p&gt;&lt;hr size=&quot;1&quot;&gt;&lt;p style=&quot;margin:0px;margin-left:4px;&quot;&gt;&lt;span style=&quot;text-wrap-mode: wrap;&quot;&gt;receive()&lt;/span&gt;&lt;/p&gt;&lt;p style=&quot;margin:0px;margin-left:4px;&quot;&gt;&lt;span style=&quot;text-wrap-mode: wrap;&quot;&gt;setAlgorith ( s : Algorithm)&lt;/span&gt;&lt;/p&gt;" style="verticalAlign=top;align=left;overflow=fill;fontSize=12;fontFamily=Helvetica;html=1;rounded=0;shadow=0;comic=0;labelBackgroundColor=none;strokeWidth=1" vertex="1" parent="1">
          <mxGeometry x="-240" y="100" width="230" height="103" as="geometry" />
        </mxCell>
        <mxCell id="UcH5Wo7i8Ctd8OzwUcl7-27" value="" style="rhombus;whiteSpace=wrap;html=1;align=left;verticalAlign=top;rounded=0;shadow=0;comic=0;labelBackgroundColor=none;strokeWidth=1;" vertex="1" parent="1">
          <mxGeometry x="-10" y="140" width="35" height="31.5" as="geometry" />
        </mxCell>
      </root>
    </mxGraphModel>
  </diagram>
</mxfile>
